<svg xmlns="http://www.w3.org/2000/svg" viewBox="0 0 340.16 340.16">
    <g id="CompassNeedle">
        <polygon class="cls-2" points="170.48 259.39 149.69 192.03 191.94 192.03 170.48 259.39"/>
        <path class="cls-2"
              d="M170.47,187.33a17.66,17.66,0,1,1,17.66-17.66A17.68,17.68,0,0,1,170.47,187.33Zm0-34.33a16.66,16.66,0,1,0,16.66,16.66A16.68,16.68,0,0,0,170.47,153Z"
              transform="translate(0)"/>
        <polygon class="cls-2" points="167.82 259.39 147.19 195.41 135.85 195.41 167.82 259.39"/>
        <polygon class="cls-2" points="173.3 259.39 193.93 195.41 205.26 195.41 173.3 259.39"/>
        <path class="cls-2"
              d="M170.48,79.8,117.08,192l107.19,0Zm0,110.9a21.1,21.1,0,0,1-7-41l7.37-32.89,7,33a21.09,21.09,0,0,1-7.39,40.86Z"
              transform="translate(0)"/>
    </g>
</svg>