<svg xmlns="http://www.w3.org/2000/svg" viewBox="0 0 340.16 340.16">
    <g id="CompassRing">
        <path class="cls-1" d="M94.29,245.39q-1.36-1.36-2.63-2.77l-3,9.14,8.93-3.29Q95.91,247,94.29,245.39Z"
              transform="translate(0)"/>
        <polygon class="cls-1" points="97.3 242.88 93.37 244.26 95.85 246.74 97.3 242.88"/>
        <path class="cls-1" d="M243.43,248.47l9.14,3-3.29-8.93q-1.49,1.68-3.09,3.29Q244.84,247.2,243.43,248.47Z"
              transform="translate(0)"/>
        <polyline class="cls-1" points="247.55 244.29 243.69 242.84 245.07 246.77"/>
        <path class="cls-1" d="M249.28,96.71l3-9.14-8.93,3.29q1.68,1.49,3.29,3.09Q248,95.3,249.28,96.71Z"
              transform="translate(0)"/>
        <polyline class="cls-1" points="245.1 92.59 243.65 96.45 247.58 95.07"/>
        <path class="cls-1" d="M170.68,286.55l-2.86-5.67-1.14,0,4,8,3.7-8-1.12,0Z" transform="translate(0)"/>
        <path class="cls-1" d="M53.59,169.87,59.25,167c0-.38,0-.76,0-1.14l-8,4,8,3.7c0-.37,0-.75,0-1.12Z"
              transform="translate(0)"/>
        <path class="cls-1" d="M281.65,165.72c0,.37,0,.75,0,1.12l5.67,2.62-5.67,2.86c0,.38,0,.76,0,1.14l8-4Z"
              transform="translate(0)"/>
        <path class="cls-1"
              d="M176,275.69c-1.07.06-2.11.11-3.13.14l.12.26-.46.21-.21-.45c-1.29,0-2.55,0-3.81,0l-.21.44-.45-.22.11-.23c-1,0-2-.05-3-.1l-.86,0,2.08,4.12,1.14,0-1.56-3.08c3.12.13,6.17.12,9.47-.05l-1.45,3.13,1.12,0,1.93-4.18Z"
              transform="translate(0)"/>
        <path class="cls-1" d="M170.46,271.77l1.85,4.07h.54l-2.38-5.24L168,275.85h.55Z" transform="translate(0)"/>
        <path class="cls-1" d="M168.29,276.29l.21-.44H168l-.11.23Z" transform="translate(0)"/>
        <path class="cls-1" d="M172.52,276.29l.46-.21-.12-.26h-.54Z" transform="translate(0)"/>
        <path class="cls-1"
              d="M64.45,175.18q-.1-1.59-.14-3.13l-.25.12-.21-.46.45-.21c0-.78,0-1.56,0-2.31,0-.5,0-1,0-1.5l-.44-.21.22-.45.23.11c0-1,.05-2,.1-3l0-.86-4.12,2.08c0,.38,0,.76,0,1.14l3.08-1.56c-.06,1.42-.09,2.85-.09,4.26,0,1.67,0,3.42.14,5.21L60.27,173c0,.37,0,.75,0,1.12L64.5,176Z"
              transform="translate(0)"/>
        <path class="cls-1" d="M68.37,169.65,64.3,171.5c0,.18,0,.36,0,.55l5.25-2.38-5.27-2.52c0,.18,0,.37,0,.55Z"
              transform="translate(0)"/>
        <path class="cls-1" d="M63.84,167.48l.44.21c0-.18,0-.37,0-.55l-.23-.11Z" transform="translate(0)"/>
        <path class="cls-1" d="M63.85,171.71l.21.46.25-.12c0-.19,0-.36,0-.55Z" transform="translate(0)"/>
        <path class="cls-1"
              d="M277.68,170.13c0-1.67,0-3.42-.14-5.21l3.13,1.45c0-.37,0-.75,0-1.12l-4.18-1.93.05.83q.1,1.59.14,3.13l.25-.11.21.46-.45.2c0,.78,0,1.55,0,2.31,0,.5,0,1,0,1.5l.44.21-.22.45-.23-.11c0,1-.05,2-.1,3l0,.86,4.12-2.08c0-.38,0-.76,0-1.14l-3.08,1.56C277.65,173,277.68,171.55,277.68,170.13Z"
              transform="translate(0)"/>
        <path class="cls-1" d="M276.66,172.19c0-.18,0-.37,0-.55l-4.09-2,4.07-1.85c0-.18,0-.36,0-.55l-5.25,2.38Z"
              transform="translate(0)"/>
        <path class="cls-1" d="M277.1,167.62l-.21-.46-.25.11c0,.19,0,.36,0,.55Z" transform="translate(0)"/>
        <path class="cls-1" d="M276.89,172.3l.22-.45-.44-.21c0,.18,0,.37,0,.55Z" transform="translate(0)"/>
        <path class="cls-1" d="M94.75,93.49q1.36-1.36,2.77-2.63l-3-1q-2,1.94-4,4l1.07,2.9Q93.15,95.1,94.75,93.49Z"
              transform="translate(0)"/>
        <path class="cls-1" d="M88.37,87.85l1.78,4.85q1.57-1.64,3.2-3.21Z" transform="translate(0)"/>
        <polygon class="cls-1" points="93.39 95.04 97.26 96.49 95.87 92.56 93.39 95.04"/>
        <path class="cls-1"
              d="M162.9,59.18l2.3-.14s0-.08,0-.13a5.42,5.42,0,1,1,10.84,0s0,.09,0,.14l1.76.11-.26-.52.58,0L170,42.62l-7.42,16.07.57,0Z"
              transform="translate(0)"/>
        <path class="cls-1"
              d="M174.89,279.82l-.47,1A111.39,111.39,0,0,0,281.65,173.46l-1,.51A110.39,110.39,0,0,1,174.89,279.82Z"
              transform="translate(0)"/>
        <path class="cls-1"
              d="M60.32,174.08l-1-.47A111.39,111.39,0,0,0,166.68,280.84l-.51-1A110.39,110.39,0,0,1,60.32,174.08Z"
              transform="translate(0)"/>
        <path class="cls-1" d="M167.3,279.87l-1.14,0,.51,1,1.14,0Z" transform="translate(0)"/>
        <path class="cls-1" d="M173.77,279.86l-.47,1,1.12,0,.47-1Z" transform="translate(0)"/>
        <path class="cls-1"
              d="M90.59,93.87q1.94-2,4-4a109.63,109.63,0,0,1,67-30.11l-3.45,7.46.83-.05c2.18-.13,4.29-.23,6.36-.29l5.2,11.46,5.48-11.44,0-.06c2,0,4.06.12,6.08.22l.86,0-3.71-7.35c55.53,4.36,99.21,50.12,101.42,105.49l1,.47A111.24,111.24,0,0,0,178.4,58.7l-.3,0-.58,0,.26.52.58,0,3.72,7.37q-5.28-.27-10.64-.27c-4.22,0-8.41.14-12.56.39l3.45-7.47.57,0,.24-.53-.57,0-.28,0A110.73,110.73,0,0,0,93.36,89.49q-1.63,1.57-3.2,3.21l-1,1.05a110.81,110.81,0,0,0-29.86,72.12l1-.52A110.14,110.14,0,0,1,90.59,93.87Zm84.9-27.19-5,10.48-4.76-10.48Z"
              transform="translate(0)"/>
        <path class="cls-1" d="M60.27,173l-1-.47c0,.37,0,.75,0,1.12l1,.47C60.3,173.71,60.29,173.33,60.27,173Z"
              transform="translate(0)"/>
        <path class="cls-1" d="M60.27,166.5c0-.38,0-.76,0-1.14l-1,.52c0,.38,0,.76,0,1.14Z" transform="translate(0)"/>
        <path class="cls-1" d="M280.67,166.37l1,.47c0-.37,0-.75,0-1.12l-1-.47C280.64,165.62,280.66,166,280.67,166.37Z"
              transform="translate(0)"/>
        <path class="cls-1" d="M280.68,172.83c0,.38,0,.76,0,1.14l1-.51c0-.38,0-.76,0-1.14Z" transform="translate(0)"/>
        <polygon class="cls-1" points="175.49 66.69 165.72 66.69 170.48 77.16 175.49 66.69"/>
        <path class="cls-1"
              d="M170.61,64.33A5.42,5.42,0,0,1,165.2,59l-2.3.14-.57,0-3.45,7.47c4.16-.25,8.34-.39,12.56-.39q5.35,0,10.64.27l-3.72-7.37-.58,0L176,59.05A5.42,5.42,0,0,1,170.61,64.33Z"
              transform="translate(0)"/>
        <path class="cls-1"
              d="M167.13,62.17c.59,0,.87-.24,1-.52a8.84,8.84,0,0,0,.11-1.86V57.62c0-.89,0-.84-.23-1.06a1.21,1.21,0,0,0-.91-.37v-.14h1.23l4.62,5.28h0V58.48c0-1.95,0-2.21-1.18-2.29v-.14h2.48v.14c-.58,0-.83.24-.92.53a7.7,7.7,0,0,0-.1,1.76v3.9h-.11l-4.61-5.25h0v2.66a10.75,10.75,0,0,0,.09,1.84c.09.31.39.49,1.06.54v.14h-2.49Z"
              transform="translate(0)"/>
    </g>
</svg>