<svg xmlns="http://www.w3.org/2000/svg" viewBox="0 0 326.31 326.31">
    <g id="Logo">
        <path class="cls-1"
              d="M165.53,169.09c.59,1.38,3.26,1.38,3.26,1.38-1.29-.89-.69-2.37-1.78-3.86a5.13,5.13,0,0,0-3.26-1.58C164.64,165.24,164.93,167.71,165.53,169.09Z"
              transform="translate(-7.33 -6.51)"/>
        <path class="cls-1"
              d="M233,100.68v15.14l-11-10.43V92.19q-3.65-2.42-7.54-4.5v38.57l-11-10.43V82.71q-3.7-1.4-7.54-2.49v56.47l-11-10.43V77.82q-3.72-.58-7.54-.87v59.74L172,147.12l-5.48-10.43V76.78q-3.81.16-7.54.62v48.86l-11,10.43V79.41q-3.83.95-7.54,2.2v34.21l-11,10.43V86.13Q125.66,88,122,90.25v15.14l-11,10.43V98A93.39,93.39,0,1,0,233,100.68Zm-29.1,135.94c-.72,5.16.62,7.53-.72,10.73s-5.67,3.2-7.84,2.89a64.55,64.55,0,0,0-13.82.31c-5.26.72-10.11,4.23-15.27,4.85s-8-.62-12.28-3.51-.41-1.86,2.48-1.24,2.58-.21,1.24-1.34-4.23-2.48-2-2.79,3.3-2.27,1.55-1.75a5.6,5.6,0,0,1-3.61-.41,7.53,7.53,0,0,0,3.6-1.26,12.05,12.05,0,0,0,1.63-1.11s.08-1.42-6.64-1.76-7.4-1.1-7.45-1.27a5.53,5.53,0,0,0,2.43,3.9l-2.43.37c4.12,8.61,10.53,11.54,10.53,11.54-9.28,1.93-15.75-15.14-15.75-15.14.62.62,2.07,0,2.07,0-3.32-4.56-1.66-8.29-1.66-8.29,4.35,6.84,14.93,6,24.67,5.8s22.7,4.56,22.7,4.56c-10.11-8-26.85-6.22-26.85-6.22.41-3.73-11.82-15.34-14.51-36.9s12.25-35.93,12.25-35.93c-2.59-3.28-1.38-10.54,0-13.3s2.33-1.21,3,0a64.79,64.79,0,0,0,4.06,5.1c1.3-1.47,9.5-2,9.5-2,.09-.69,3.28-3.28,4.67-4.41s1.9-.69,1.9,1.3-1.47,7-1.47,7c2.59,3.46,3.28,5.44,2.59,9.68a15.32,15.32,0,0,0,.74,7.65,42.8,42.8,0,0,0,4.09,7.29c-19.78,2.94-25.05-10.2-25.05-10.2-13.75,13.37-11.12,28-11.12,28A10.12,10.12,0,0,1,157,195c-2.06,16.2,4.13,23.73,4.13,23.73-1.86-4,.41-13.72.41-13.72.62,3.2,3.82,5.88,3.82,5.88-1.13-1.75-.41-5.36.1-8.36s2.89-2.27,4.44-1.55,1.34-1.75,1-3.2a5.34,5.34,0,0,1,.62-3.92,17.38,17.38,0,0,0,2.37-5.16c.83-2.68-2.26-7.27-2.26-7.27a27.91,27.91,0,0,0,4.93,1.28,38.07,38.07,0,0,0,2.69,8.36c2.27,5.47,16.2,10.37,20.22,18.78C205.81,223,204.59,231.46,203.87,236.61Z"
              transform="translate(-7.33 -6.51)"/>
        <path class="cls-1"
              d="M170.48,269.35a99.69,99.69,0,1,1,99.69-99.69A99.8,99.8,0,0,1,170.48,269.35Zm0-197.38a97.69,97.69,0,1,0,97.69,97.69A97.8,97.8,0,0,0,170.48,72Z"
              transform="translate(-7.33 -6.51)"/>
        <path class="cls-1"
              d="M270.28,54.46,241.66,89.32A107.64,107.64,0,0,1,278,169.66h45.08A152.65,152.65,0,0,0,270.28,54.46Zm19.08,65.85L279,127.87l4-12.23-10.41-7.56h12.86l4-12.23,4,12.23H306.2l-10.41,7.56,4,12.23Z"
              transform="translate(-7.33 -6.51)"/>
        <path class="cls-1"
              d="M70.34,54.06A152.65,152.65,0,0,0,17.08,169.66H62.16A107.65,107.65,0,0,1,99,88.91Zm-5,73.82L55,120.31l-10.41,7.56,4-12.23-10.41-7.56H51l4-12.23,4,12.23H71.79l-10.41,7.56Z"
              transform="translate(-7.33 -6.51)"/>
        <path class="cls-1"
              d="M170.48,280.18A110.52,110.52,0,1,1,281,169.66,110.64,110.64,0,0,1,170.48,280.18Zm0-215A104.52,104.52,0,1,0,275,169.66,104.64,104.64,0,0,0,170.48,65.15Z"
              transform="translate(-7.33 -6.51)"/>
        <path class="cls-1" d="M30.31,195.81l-.82-4.89,19.62-3.28-1.23-7.37,4.91-.82,3.28,19.62-4.91.82-1.23-7.36Z"
              transform="translate(-7.33 -6.51)"/>
        <path class="cls-1"
              d="M38.44,224.24l-5.5-16.14,23.55-8L62,216.23l-4.71,1.6L53.39,206.4,48.67,208l2.63,7.73-4.71,1.6L44,209.61l-4.7,1.6,3.89,11.43Z"
              transform="translate(-7.33 -6.51)"/>
        <path class="cls-1" d="M49.09,245.05l-8.17-15.38,22-11.67,2.34,4.4-17.57,9.34,5.84,11Z"
              transform="translate(-7.33 -6.51)"/>
        <path class="cls-1"
              d="M62.22,262.84l-10.29-13.6,19.84-15,10.29,13.6-4,3-7.28-9.63-4,3,4.93,6.51-4,3-4.93-6.51-4,3,7.28,9.63Z"
              transform="translate(-7.33 -6.51)"/>
        <path class="cls-1"
              d="M69.94,270.8l-3.63-3.41,17-18.14,7.26,6.81a9.71,9.71,0,0,1,1.68,2.06,9.91,9.91,0,0,1,1,2.35,10,10,0,0,1-.74,7.48,9.94,9.94,0,0,1-4.76,4.45,10,10,0,0,1-7.49.24A9.66,9.66,0,0,1,77,270.57l-3.63-3.41Zm13.62-14.51-6.81,7.26L80.38,267A4.8,4.8,0,0,0,82,268a5,5,0,0,0,3.74-.12A5,5,0,0,0,88.44,265a5,5,0,0,0-.11-3.75,4.79,4.79,0,0,0-1.14-1.6Z"
              transform="translate(-7.33 -6.51)"/>
        <path class="cls-1"
              d="M112.72,287.11a12.56,12.56,0,0,1-2.19,2.65,13.14,13.14,0,0,1-2.72,1.92,12.69,12.69,0,0,1-3.09,1.15,13.08,13.08,0,0,1-3.28.34,12.84,12.84,0,0,1-9.09-4.12,13,13,0,0,1-2.89-12.4,12.8,12.8,0,0,1,6.33-7.71,13.07,13.07,0,0,1,3.09-1.14,12.73,12.73,0,0,1,3.28-.33,13.09,13.09,0,0,1,3.29.52,12.9,12.9,0,0,1,5.8,3.61A12.84,12.84,0,0,1,114.13,284,12.65,12.65,0,0,1,112.72,287.11Zm-4.2-2.61a7.69,7.69,0,0,0,1.1-2.94,7.88,7.88,0,0,0-1.35-5.79A7.92,7.92,0,0,0,103,272.5a8.12,8.12,0,0,0-3,.11,7.91,7.91,0,0,0-2.77,1.24,7.7,7.7,0,0,0-2.16,2.28A7.57,7.57,0,0,0,94,279.06a8,8,0,0,0,1.36,5.8,7.93,7.93,0,0,0,5.24,3.26,7.94,7.94,0,0,0,3-.11,8.16,8.16,0,0,0,2.76-1.24A7.57,7.57,0,0,0,108.52,284.49Z"
              transform="translate(-7.33 -6.51)"/>
        <path class="cls-1"
              d="M116.78,301.82l-4.67-1.74,8.67-23.31,9.33,3.47a9.67,9.67,0,0,1,2.35,1.25,9.91,9.91,0,0,1,1.87,1.77,10.12,10.12,0,0,1,1.34,2.17,10,10,0,0,1,.87,5,9.92,9.92,0,0,1-1.76,4.83,10.27,10.27,0,0,1-1.67,1.84,9.74,9.74,0,0,1-2.08,1.38,9.93,9.93,0,0,1-2.38.82l.32,7.06-5-1.84-.29-5.45-5.23-1.91Zm6.93-18.65-3.47,9.33,4.67,1.74a4.79,4.79,0,0,0,1.94.3,5,5,0,0,0,3.4-1.57,5,5,0,0,0,1.35-3.62,5,5,0,0,0-.45-1.86,5.05,5.05,0,0,0-1.11-1.55,4.8,4.8,0,0,0-1.67-1Z"
              transform="translate(-7.33 -6.51)"/>
        <path class="cls-1" d="M146.34,310.19l-4.87-.92,3.69-19.55-7.35-1.38.92-4.89,19.55,3.69-.92,4.89L150,290.64Z"
              transform="translate(-7.33 -6.51)"/>
        <path class="cls-1"
              d="M177.7,312.37l-5-.09.09-5-10-.19-.09,5-5-.09.28-14.92a9.69,9.69,0,0,1,.85-3.86,10.12,10.12,0,0,1,2.18-3.12,10,10,0,0,1,3.2-2.07,10,10,0,0,1,7.75.15,10,10,0,0,1,5.2,5.4,9.7,9.7,0,0,1,.71,3.89Zm-4.79-10,.09-5a4.85,4.85,0,0,0-.35-1.94,5,5,0,0,0-2.6-2.7,5,5,0,0,0-3.87-.07,5,5,0,0,0-2.7,2.6,4.86,4.86,0,0,0-.43,1.93l-.09,5Z"
              transform="translate(-7.33 -6.51)"/>
        <path class="cls-1" d="M194.23,310.26l-4.91.74-2.95-19.68L179,292.43l-.74-4.92,19.68-2.95.74,4.92-7.38,1.11Z"
              transform="translate(-7.33 -6.51)"/>
        <path class="cls-1" d="M210.69,306.48l-4.8,1.32-6.58-24,4.8-1.32Z" transform="translate(-7.33 -6.51)"/>
        <path class="cls-1"
              d="M234.72,283.68a12.61,12.61,0,0,1,1,3.3,13.13,13.13,0,0,1,.06,3.33,12.69,12.69,0,0,1-.79,3.2,13.11,13.11,0,0,1-1.57,2.9,12.75,12.75,0,0,1-5.23,4.23,12.56,12.56,0,0,1-3.3,1A13,13,0,0,1,213,297a12.54,12.54,0,0,1-1.8-2.93,12.73,12.73,0,0,1-1-6.65,13.06,13.06,0,0,1,.8-3.2,12.71,12.71,0,0,1,1.58-2.89,13.17,13.17,0,0,1,2.29-2.42,12.52,12.52,0,0,1,2.93-1.8,12.67,12.67,0,0,1,3.31-1,12.84,12.84,0,0,1,11.83,4.59A12.69,12.69,0,0,1,234.72,283.68Zm-4.52,2a7.69,7.69,0,0,0-1.81-2.57,7.89,7.89,0,0,0-5.55-2.15,7.92,7.92,0,0,0-5.64,2.49,8.11,8.11,0,0,0-1.62,2.56,7.92,7.92,0,0,0-.54,3,7.7,7.7,0,0,0,.67,3.07,7.57,7.57,0,0,0,1.81,2.55,8,8,0,0,0,5.55,2.15,7.93,7.93,0,0,0,5.64-2.49,7.92,7.92,0,0,0,1.62-2.57,8.15,8.15,0,0,0,.54-3A7.57,7.57,0,0,0,230.2,285.68Z"
              transform="translate(-7.33 -6.51)"/>
        <path class="cls-1"
              d="M261.35,279.94,257,283l-17.32-7.75,9.52,13.32-4.05,2.89L230.7,271.27l4.33-3.1,17.33,7.76-9.53-13.34,4.05-2.89Z"
              transform="translate(-7.33 -6.51)"/>
        <path class="cls-1"
              d="M253.36,263.94a7.19,7.19,0,0,1-1.67-2.44,7.58,7.58,0,0,1-.09-5.62,7.17,7.17,0,0,1,1.59-2.49l7.94-8.19,3.57,3.47-7.95,8.19a2.46,2.46,0,0,0,.05,3.51,2.54,2.54,0,0,0,.84.54,2.44,2.44,0,0,0,.94.18,2.45,2.45,0,0,0,1.74-.76l3.47-3.57a7.31,7.31,0,0,1,2.44-1.68,7.42,7.42,0,0,1,5.62-.09,7.32,7.32,0,0,1,2.49,1.61A7.25,7.25,0,0,1,276,259a7.49,7.49,0,0,1,.59,2.79,7.59,7.59,0,0,1-.5,2.82,7.24,7.24,0,0,1-1.6,2.5l-7.69,7.93-3.57-3.47,7.69-7.93a2.48,2.48,0,1,0-3.56-3.45l-3.47,3.57a7.16,7.16,0,0,1-2.44,1.67,7.56,7.56,0,0,1-5.62.08A7.24,7.24,0,0,1,253.36,263.94Z"
              transform="translate(-7.33 -6.51)"/>
        <path class="cls-1" d="M291.94,244.35l-2.69,4.19-20.94-13.42,2.68-4.19Z" transform="translate(-7.33 -6.51)"/>
        <path class="cls-1"
              d="M304,220.71l-2.25,4.83-18.89,1.79,14.85,6.91-2.1,4.51L273,228.25l2.25-4.83,18.91-1.78-14.86-6.92,2.1-4.51Z"
              transform="translate(-7.33 -6.51)"/>
        <path class="cls-1"
              d="M308.84,193.71a12.83,12.83,0,0,1-.34,12,13,13,0,0,1-10.94,6.51,12.91,12.91,0,0,1-6.62-1.68,12.87,12.87,0,0,1-4.7-4.62,12.89,12.89,0,0,1-1.82-6.32,12.56,12.56,0,0,1,.39-3.42,12.85,12.85,0,0,1,1.86-4.13,12.34,12.34,0,0,1,3.18-3.2l3.56,3.62a7.46,7.46,0,0,0-2.39,2.06,7.91,7.91,0,0,0-1.38,2.87,7.68,7.68,0,0,0-.15,3.15,8.13,8.13,0,0,0,1,2.85,7.91,7.91,0,0,0,2,2.27,7.68,7.68,0,0,0,2.83,1.36,7.57,7.57,0,0,0,3.12.15,8,8,0,0,0,5.11-3.05,7.68,7.68,0,0,0,1.36-2.84,7.91,7.91,0,0,0,.15-3.18,7.44,7.44,0,0,0-1.12-3Z"
              transform="translate(-7.33 -6.51)"/>
        <path class="cls-1"
              d="M310.56,184a3,3,0,0,1,1.13.37,2.88,2.88,0,0,1,.86.73,3,3,0,0,1,.51,1,3,3,0,0,1-.28,2.3,3.09,3.09,0,0,1-.74.87,2.94,2.94,0,0,1-2.21.61,2.84,2.84,0,0,1-1.11-.37,2.94,2.94,0,0,1-.85-.75,3.11,3.11,0,0,1-.51-1,3,3,0,0,1,.28-2.3,3,3,0,0,1,.74-.85,2.9,2.9,0,0,1,1-.51A2.94,2.94,0,0,1,310.56,184Z"
              transform="translate(-7.33 -6.51)"/>
        <path class="cls-1"
              d="M121.26,52.75a6.18,6.18,0,0,1,.7,2.4,6.27,6.27,0,0,1-1.42,4.53,6.19,6.19,0,0,1-1.95,1.57,6.27,6.27,0,0,1-2.18.68,6,6,0,0,1-2.28-.16,6,6,0,0,1-1.17,2,6.33,6.33,0,0,1-1.81,1.41,6.18,6.18,0,0,1-2.4.7,6.27,6.27,0,0,1-4.53-1.42,6.18,6.18,0,0,1-1.57-1.95l-7-13.29,3.73-1.95,7,13.29a2.13,2.13,0,0,0,.53.66,2.05,2.05,0,0,0,.71.39,2.11,2.11,0,0,0,2.63-1.38,2.05,2.05,0,0,0,.08-.8,2.14,2.14,0,0,0-.24-.81l-7-13.29,3.73-1.95,7,13.29a2.14,2.14,0,0,0,.53.66,2.05,2.05,0,0,0,.71.39,2.11,2.11,0,0,0,2.63-1.38,2.15,2.15,0,0,0,.09-.81,2.06,2.06,0,0,0-.23-.81l-7-13.29,3.71-1.94Z"
              transform="translate(-7.33 -6.51)"/>
        <path class="cls-1"
              d="M130.78,55.91l-4,1.25-6.22-20.06,4-1.24,2.49,8,8-2.48-2.49-8,4-1.24,6.22,20.06-4,1.24-2.48-8-8,2.48Z"
              transform="translate(-7.33 -6.51)"/>
        <path class="cls-1" d="M150.24,51l-4.13.77-3.87-20.65,4.13-.77Z" transform="translate(-7.33 -6.51)"/>
        <path class="cls-1" d="M162.35,49.54l-4.17.35-1.41-16.74-6.29.53-.35-4.19,16.74-1.41.35,4.19-6.28.53Z"
              transform="translate(-7.33 -6.51)"/>
        <path class="cls-1"
              d="M184.56,49.86l-14.38-.75,1.1-21,14.38.75-.22,4.2-10.18-.53-.22,4.2,6.89.36-.22,4.2-6.89-.36-.22,4.18,10.18.53Z"
              transform="translate(-7.33 -6.51)"/>
        <path class="cls-1"
              d="M190.91,51l-4.13-.79,3.93-20.63,14.45,2.75-.79,4.13-10.32-2-.79,4.13,6.19,1.18-.79,4.13-6.19-1.18Z"
              transform="translate(-7.33 -6.51)"/>
        <path class="cls-1"
              d="M225,50.26a10.57,10.57,0,0,1-1.34,2.58,11.06,11.06,0,0,1-1.91,2.07,10.76,10.76,0,0,1-2.35,1.5,11.08,11.08,0,0,1-2.65.86,10.85,10.85,0,0,1-8.24-1.8A10.94,10.94,0,0,1,204,45.74a10.6,10.6,0,0,1,.61-2.84,10.74,10.74,0,0,1,3.26-4.65,11.07,11.07,0,0,1,2.35-1.49,10.75,10.75,0,0,1,2.65-.85,11.08,11.08,0,0,1,2.81-.15,10.9,10.9,0,0,1,5.42,2,10.85,10.85,0,0,1,4.56,9.7A10.69,10.69,0,0,1,225,50.26Zm-3.93-1.42a6.5,6.5,0,0,0,.39-2.62,6.66,6.66,0,0,0-2.14-4.55,6.69,6.69,0,0,0-4.9-1.77,6.86,6.86,0,0,0-2.48.62A6.7,6.7,0,0,0,209.9,42a6.5,6.5,0,0,0-1.38,2.27,6.37,6.37,0,0,0-.38,2.61,6.77,6.77,0,0,0,2.14,4.55,6.69,6.69,0,0,0,4.9,1.77,6.68,6.68,0,0,0,2.48-.63,6.88,6.88,0,0,0,2.06-1.51A6.38,6.38,0,0,0,221.11,48.85Z"
              transform="translate(-7.33 -6.51)"/>
        <path class="cls-1"
              d="M236.84,68.8l-4.46-2.48-.24-7.89-6.84,4-4.43-2.46,10.74-6.05-.53-12.31L235.5,44l.25,7.9,6.83-4L247,50.44l-10.73,6.05Z"
              transform="translate(-7.33 -6.51)"/>
        <path class="cls-1"
              d="M327.69,169.66a9.16,9.16,0,0,1,5.94-8.57q-.3-5.71-1-11.32a9.15,9.15,0,0,1-3-16.9q-1.28-5.55-2.94-11a9.15,9.15,0,0,1-5.87-16.14q-2.23-5.23-4.8-10.28a9.15,9.15,0,0,1-8.6-14.85q-3.1-4.77-6.52-9.3a9.15,9.15,0,0,1-11-13.12q-3.88-4.16-8-8a9.15,9.15,0,0,1-13.12-11q-4.53-3.42-9.3-6.52a9.15,9.15,0,0,1-14.85-8.6q-5-2.57-10.28-4.8a9.15,9.15,0,0,1-16.14-5.87q-5.4-1.65-11-2.94a9.15,9.15,0,0,1-16.9-3q-5.6-.68-11.32-1a9.15,9.15,0,0,1-17.15,0q-5.71.3-11.32,1a9.15,9.15,0,0,1-16.9,3q-5.55,1.28-11,2.94a9.15,9.15,0,0,1-16.14,5.87q-5.23,2.23-10.28,4.8a9.15,9.15,0,0,1-14.85,8.6q-4.77,3.1-9.3,6.52a9.15,9.15,0,0,1-13.12,11q-4.16,3.88-8,8A9.15,9.15,0,0,1,40,71.36q-3.42,4.53-6.52,9.3a9.15,9.15,0,0,1-8.6,14.85q-2.57,5-4.8,10.28a9.15,9.15,0,0,1-5.87,16.14q-1.65,5.4-2.94,11a9.15,9.15,0,0,1-3,16.9q-.68,5.6-1,11.32a9.15,9.15,0,0,1,0,17.15q.3,5.71,1,11.32a9.15,9.15,0,0,1,3,16.9q1.28,5.55,2.94,11a9.15,9.15,0,0,1,5.87,16.14q2.23,5.23,4.8,10.28a9.15,9.15,0,0,1,8.6,14.85q3.1,4.77,6.52,9.3a9.15,9.15,0,0,1,11,13.12q3.88,4.16,8,8a9.15,9.15,0,0,1,13.12,11q4.53,3.42,9.3,6.52a9.15,9.15,0,0,1,14.85,8.6q5,2.57,10.28,4.8a9.15,9.15,0,0,1,16.14,5.87q5.4,1.65,11,2.94a9.15,9.15,0,0,1,16.9,3q5.6.68,11.32,1a9.15,9.15,0,0,1,17.15,0q5.71-.3,11.32-1a9.15,9.15,0,0,1,16.9-3q5.55-1.28,11-2.94a9.15,9.15,0,0,1,16.14-5.87q5.23-2.23,10.28-4.8a9.15,9.15,0,0,1,14.85-8.6q4.77-3.1,9.3-6.52a9.15,9.15,0,0,1,13.12-11q4.16-3.88,8-8A9.15,9.15,0,0,1,301,268q3.42-4.53,6.52-9.3a9.15,9.15,0,0,1,8.6-14.85q2.57-5,4.8-10.28a9.15,9.15,0,0,1,5.87-16.14q1.65-5.4,2.94-11a9.15,9.15,0,0,1,3-16.9q.68-5.6,1-11.32A9.16,9.16,0,0,1,327.69,169.66ZM170.48,321.84A151.76,151.76,0,1,1,322.24,170.08,151.76,151.76,0,0,1,170.48,321.84Z"
              transform="translate(-7.33 -6.51)"/>
    </g>
</svg>