<svg xmlns="http://www.w3.org/2000/svg" viewBox="0 0 340.16 340.16">
    <g id="Restart">
        <path class="cls-2"
              d="M33.59,54.83h-.5V48.45h.5a11.6,11.6,0,1,0-8.23-19.74l4.83,2.8L14.28,40.67V22.31l5.4,3.12A18,18,0,1,1,33.59,54.83Zm.5-5.39v4.38A17,17,0,1,0,20.21,26.39l-.27.34L15.29,24v14.9L28.19,31.5l-4.41-2.55.41-.46a12.59,12.59,0,1,1,9.9,20.95Z"
              transform="translate(0)"/>
        <path class="cls-2"
              d="M32.93,62.08A25.23,25.23,0,1,1,58.16,36.85,25.26,25.26,0,0,1,32.93,62.08Zm0-50A24.73,24.73,0,1,0,57.66,36.85,24.76,24.76,0,0,0,32.93,12.11Z"
              transform="translate(0)"/>
        <path class="cls-2"
              d="M32.93,65.23A28.39,28.39,0,1,1,61.31,36.85,28.42,28.42,0,0,1,32.93,65.23Zm0-54.77A26.39,26.39,0,1,0,59.31,36.85,26.42,26.42,0,0,0,32.93,10.46Z"
              transform="translate(0)"/>
    </g>
</svg>