<?xml version="1.0" encoding="utf-8"?>
<!-- Generator: Adobe Illustrator 21.0.2, SVG Export Plug-In . SVG Version: 6.00 Build 0)  -->
<svg version="1.1" xmlns="http://www.w3.org/2000/svg" xmlns:xlink="http://www.w3.org/1999/xlink" x="0px" y="0px"
	 viewBox="0 0 340.2 340.2" enable-background="new 0 0 340.2 340.2" xml:space="preserve">
<g id="Center">
	<path fill="#42C0EF" d="M174.4,135.7c0,2.1-3.9,7.6-3.9,7.6s-3.9-5.5-3.9-7.6c0-2.1,1.7-3.9,3.9-3.9
		C172.6,131.8,174.4,133.5,174.4,135.7z"/>
	<path fill="#42C0EF" d="M136.5,165.8c2.1,0,7.6,3.9,7.6,3.9s-5.5,3.9-7.6,3.9c-2.1,0-3.9-1.7-3.9-3.9
		C132.6,167.5,134.3,165.8,136.5,165.8z"/>
	<path fill="#42C0EF" d="M204.5,173.6c-2.1,0-7.6-3.9-7.6-3.9s5.5-3.9,7.6-3.9c2.1,0,3.9,1.7,3.9,3.9
		C208.4,171.8,206.6,173.6,204.5,173.6z"/>
	<path fill="#42C0EF" d="M166.6,203.7c0-2.1,3.9-7.6,3.9-7.6s3.9,5.5,3.9,7.6c0,2.1-1.7,3.9-3.9,3.9
		C168.3,207.6,166.6,205.8,166.6,203.7z"/>
	<circle fill="none" stroke="#42C0EF" stroke-width="0.5" stroke-miterlimit="10" cx="170.5" cy="169.7" r="34"/>
</g>
</svg>
