<?xml version="1.0" encoding="utf-8"?>
<svg class="UIFull" version="1.1" xmlns="http://www.w3.org/2000/svg" xmlns:xlink="http://www.w3.org/1999/xlink" x="0px" y="0px"
	 viewBox="0 0 340.2 340.2" enable-background="new 0 0 340.2 340.2" xml:space="preserve">
<g id="Ruler">
	<g>
		<g>
			<line fill="none" stroke="#42C0EF" stroke-width="0.5" stroke-miterlimit="10" x1="176.2" y1="32.9" x2="175.9" y2="42.5"/>
			<line fill="none" stroke="#42C0EF" stroke-width="0.5" stroke-miterlimit="10" x1="180" y1="33.2" x2="179.4" y2="42.8"/>
			<line fill="none" stroke="#42C0EF" stroke-width="0.5" stroke-miterlimit="10" x1="184.8" y1="33.6" x2="183.8" y2="43.2"/>
			<line fill="none" stroke="#42C0EF" stroke-width="0.5" stroke-miterlimit="10" x1="189.5" y1="34.2" x2="188.2" y2="43.7"/>
			<line fill="none" stroke="#42C0EF" stroke-width="0.5" stroke-miterlimit="10" x1="194.2" y1="34.9" x2="192.6" y2="44.4"/>
			<line fill="none" stroke="#42C0EF" stroke-width="0.5" stroke-miterlimit="10" x1="198.9" y1="35.8" x2="196.9" y2="45.2"/>
			<line fill="none" stroke="#42C0EF" stroke-width="0.5" stroke-miterlimit="10" x1="203.6" y1="36.9" x2="201.3" y2="46.2"/>
			<line fill="none" stroke="#42C0EF" stroke-width="0.5" stroke-miterlimit="10" x1="208.2" y1="38.1" x2="205.5" y2="47.4"/>
			<line fill="none" stroke="#42C0EF" stroke-width="0.5" stroke-miterlimit="10" x1="212.8" y1="39.5" x2="209.8" y2="48.7"/>
			<line fill="none" stroke="#42C0EF" stroke-width="0.5" stroke-miterlimit="10" x1="217.3" y1="41.1" x2="214" y2="50.1"/>
			<line fill="none" stroke="#42C0EF" stroke-width="0.5" stroke-miterlimit="10" x1="221.7" y1="42.8" x2="218.1" y2="51.7"/>
			<line fill="none" stroke="#42C0EF" stroke-width="0.5" stroke-miterlimit="10" x1="226.1" y1="44.7" x2="222.2" y2="53.5"/>
			<line fill="none" stroke="#42C0EF" stroke-width="0.5" stroke-miterlimit="10" x1="230.5" y1="46.7" x2="226.2" y2="55.3"/>
			<line fill="none" stroke="#42C0EF" stroke-width="0.5" stroke-miterlimit="10" x1="234.7" y1="48.8" x2="230.2" y2="57.3"/>
			<line fill="none" stroke="#42C0EF" stroke-width="0.5" stroke-miterlimit="10" x1="238.9" y1="51.2" x2="234.1" y2="59.5"/>
			<line fill="none" stroke="#42C0EF" stroke-width="0.5" stroke-miterlimit="10" x1="243" y1="53.6" x2="237.9" y2="61.8"/>
			<line fill="none" stroke="#42C0EF" stroke-width="0.5" stroke-miterlimit="10" x1="247" y1="56.2" x2="241.6" y2="64.2"/>
			<line fill="none" stroke="#42C0EF" stroke-width="0.5" stroke-miterlimit="10" x1="250.9" y1="59" x2="245.3" y2="66.8"/>
			<line fill="none" stroke="#42C0EF" stroke-width="0.5" stroke-miterlimit="10" x1="254.7" y1="61.8" x2="248.8" y2="69.4"/>
			<line fill="none" stroke="#42C0EF" stroke-width="0.5" stroke-miterlimit="10" x1="258.4" y1="64.8" x2="252.3" y2="72.2"/>
			<line fill="none" stroke="#42C0EF" stroke-width="0.5" stroke-miterlimit="10" x1="262" y1="68" x2="255.6" y2="75.1"/>
			<line fill="none" stroke="#42C0EF" stroke-width="0.5" stroke-miterlimit="10" x1="265.5" y1="71.2" x2="258.9" y2="78.2"/>
			<line fill="none" stroke="#42C0EF" stroke-width="0.5" stroke-miterlimit="10" x1="268.9" y1="74.6" x2="262" y2="81.3"/>
			<line fill="none" stroke="#42C0EF" stroke-width="0.5" stroke-miterlimit="10" x1="272.2" y1="78.1" x2="265" y2="84.5"/>
			<line fill="none" stroke="#42C0EF" stroke-width="0.5" stroke-miterlimit="10" x1="275.3" y1="81.7" x2="267.9" y2="87.9"/>
			<line fill="none" stroke="#42C0EF" stroke-width="0.5" stroke-miterlimit="10" x1="278.3" y1="85.4" x2="270.7" y2="91.4"/>
			<line fill="none" stroke="#42C0EF" stroke-width="0.5" stroke-miterlimit="10" x1="281.2" y1="89.2" x2="273.4" y2="94.9"/>
			<line fill="none" stroke="#42C0EF" stroke-width="0.5" stroke-miterlimit="10" x1="283.9" y1="93.2" x2="276" y2="98.5"/>
			<line fill="none" stroke="#42C0EF" stroke-width="0.5" stroke-miterlimit="10" x1="286.5" y1="97.2" x2="278.4" y2="102.3"/>
			<line fill="none" stroke="#42C0EF" stroke-width="0.5" stroke-miterlimit="10" x1="289" y1="101.3" x2="280.7" y2="106.1"/>
			<line fill="none" stroke="#42C0EF" stroke-width="0.5" stroke-miterlimit="10" x1="291.3" y1="105.4" x2="282.8" y2="110"/>
			<line fill="none" stroke="#42C0EF" stroke-width="0.5" stroke-miterlimit="10" x1="293.5" y1="109.7" x2="284.8" y2="113.9"/>
			<line fill="none" stroke="#42C0EF" stroke-width="0.5" stroke-miterlimit="10" x1="295.5" y1="114" x2="286.7" y2="117.9"/>
			<line fill="none" stroke="#42C0EF" stroke-width="0.5" stroke-miterlimit="10" x1="297.4" y1="118.4" x2="288.4" y2="122"/>
			<line fill="none" stroke="#42C0EF" stroke-width="0.5" stroke-miterlimit="10" x1="299.1" y1="122.9" x2="290" y2="126.2"/>
			<line fill="none" stroke="#42C0EF" stroke-width="0.5" stroke-miterlimit="10" x1="300.6" y1="127.4" x2="291.5" y2="130.4"/>
			<line fill="none" stroke="#42C0EF" stroke-width="0.5" stroke-miterlimit="10" x1="302" y1="132" x2="292.8" y2="134.6"/>
			<line fill="none" stroke="#42C0EF" stroke-width="0.5" stroke-miterlimit="10" x1="303.3" y1="136.6" x2="293.9" y2="138.9"/>
			<line fill="none" stroke="#42C0EF" stroke-width="0.5" stroke-miterlimit="10" x1="304.3" y1="141.2" x2="294.9" y2="143.2"/>
			<line fill="none" stroke="#42C0EF" stroke-width="0.5" stroke-miterlimit="10" x1="305.2" y1="145.9" x2="295.8" y2="147.6"/>
			<line fill="none" stroke="#42C0EF" stroke-width="0.5" stroke-miterlimit="10" x1="306" y1="150.6" x2="296.5" y2="152"/>
			<line fill="none" stroke="#42C0EF" stroke-width="0.5" stroke-miterlimit="10" x1="306.6" y1="155.4" x2="297" y2="156.4"/>
			<line fill="none" stroke="#42C0EF" stroke-width="0.5" stroke-miterlimit="10" x1="307" y1="160.1" x2="297.4" y2="160.8"/>
			<line fill="none" stroke="#42C0EF" stroke-width="0.5" stroke-miterlimit="10" x1="307.2" y1="164.9" x2="297.6" y2="165.2"/>
			<line fill="none" stroke="#42C0EF" stroke-width="0.5" stroke-miterlimit="10" x1="307.3" y1="169.7" x2="297.7" y2="169.7"/>
			<line fill="none" stroke="#42C0EF" stroke-width="0.5" stroke-miterlimit="10" x1="307.2" y1="174.5" x2="297.6" y2="174.1"/>
			<line fill="none" stroke="#42C0EF" stroke-width="0.5" stroke-miterlimit="10" x1="307" y1="179.2" x2="297.4" y2="178.6"/>
			<line fill="none" stroke="#42C0EF" stroke-width="0.5" stroke-miterlimit="10" x1="306.6" y1="184" x2="297" y2="183"/>
			<line fill="none" stroke="#42C0EF" stroke-width="0.5" stroke-miterlimit="10" x1="306" y1="188.7" x2="296.5" y2="187.4"/>
			<line fill="none" stroke="#42C0EF" stroke-width="0.5" stroke-miterlimit="10" x1="305.2" y1="193.4" x2="295.8" y2="191.8"/>
			<line fill="none" stroke="#42C0EF" stroke-width="0.5" stroke-miterlimit="10" x1="304.3" y1="198.1" x2="294.9" y2="196.1"/>
			<line fill="none" stroke="#42C0EF" stroke-width="0.5" stroke-miterlimit="10" x1="303.3" y1="202.8" x2="293.9" y2="200.5"/>
			<line fill="none" stroke="#42C0EF" stroke-width="0.5" stroke-miterlimit="10" x1="302" y1="207.4" x2="292.8" y2="204.7"/>
			<line fill="none" stroke="#42C0EF" stroke-width="0.5" stroke-miterlimit="10" x1="300.6" y1="212" x2="291.5" y2="209"/>
			<line fill="none" stroke="#42C0EF" stroke-width="0.5" stroke-miterlimit="10" x1="299.1" y1="216.5" x2="290" y2="213.2"/>
			<line fill="none" stroke="#42C0EF" stroke-width="0.5" stroke-miterlimit="10" x1="297.4" y1="220.9" x2="288.4" y2="217.3"/>
			<line fill="none" stroke="#42C0EF" stroke-width="0.5" stroke-miterlimit="10" x1="295.5" y1="225.3" x2="286.7" y2="221.4"/>
			<line fill="none" stroke="#42C0EF" stroke-width="0.5" stroke-miterlimit="10" x1="293.5" y1="229.7" x2="284.8" y2="225.5"/>
			<line fill="none" stroke="#42C0EF" stroke-width="0.5" stroke-miterlimit="10" x1="291.3" y1="233.9" x2="282.8" y2="229.4"/>
			<line fill="none" stroke="#42C0EF" stroke-width="0.5" stroke-miterlimit="10" x1="289" y1="238.1" x2="280.7" y2="233.3"/>
			<line fill="none" stroke="#42C0EF" stroke-width="0.5" stroke-miterlimit="10" x1="286.5" y1="242.2" x2="278.4" y2="237.1"/>
			<line fill="none" stroke="#42C0EF" stroke-width="0.5" stroke-miterlimit="10" x1="283.9" y1="246.2" x2="276" y2="240.8"/>
			<line fill="none" stroke="#42C0EF" stroke-width="0.5" stroke-miterlimit="10" x1="281.2" y1="250.1" x2="273.4" y2="244.5"/>
			<line fill="none" stroke="#42C0EF" stroke-width="0.5" stroke-miterlimit="10" x1="278.3" y1="253.9" x2="270.7" y2="248"/>
			<line fill="none" stroke="#42C0EF" stroke-width="0.5" stroke-miterlimit="10" x1="275.3" y1="257.6" x2="267.9" y2="251.5"/>
			<line fill="none" stroke="#42C0EF" stroke-width="0.5" stroke-miterlimit="10" x1="272.2" y1="261.2" x2="265" y2="254.8"/>
			<line fill="none" stroke="#42C0EF" stroke-width="0.5" stroke-miterlimit="10" x1="268.9" y1="264.7" x2="262" y2="258.1"/>
			<line fill="none" stroke="#42C0EF" stroke-width="0.5" stroke-miterlimit="10" x1="265.5" y1="268.1" x2="258.9" y2="261.2"/>
			<line fill="none" stroke="#42C0EF" stroke-width="0.5" stroke-miterlimit="10" x1="262" y1="271.4" x2="255.6" y2="264.2"/>
			<line fill="none" stroke="#42C0EF" stroke-width="0.5" stroke-miterlimit="10" x1="258.4" y1="274.5" x2="252.3" y2="267.1"/>
			<line fill="none" stroke="#42C0EF" stroke-width="0.5" stroke-miterlimit="10" x1="254.7" y1="277.5" x2="248.8" y2="269.9"/>
			<line fill="none" stroke="#42C0EF" stroke-width="0.5" stroke-miterlimit="10" x1="250.9" y1="280.4" x2="245.3" y2="272.6"/>
			<line fill="none" stroke="#42C0EF" stroke-width="0.5" stroke-miterlimit="10" x1="247" y1="283.1" x2="241.6" y2="275.2"/>
			<line fill="none" stroke="#42C0EF" stroke-width="0.5" stroke-miterlimit="10" x1="243" y1="285.7" x2="237.9" y2="277.6"/>
			<line fill="none" stroke="#42C0EF" stroke-width="0.5" stroke-miterlimit="10" x1="238.9" y1="288.2" x2="234.1" y2="279.9"/>
			<line fill="none" stroke="#42C0EF" stroke-width="0.5" stroke-miterlimit="10" x1="234.7" y1="290.5" x2="230.2" y2="282"/>
			<line fill="none" stroke="#42C0EF" stroke-width="0.5" stroke-miterlimit="10" x1="230.5" y1="292.7" x2="226.2" y2="284"/>
			<line fill="none" stroke="#42C0EF" stroke-width="0.5" stroke-miterlimit="10" x1="226.1" y1="294.7" x2="222.2" y2="285.9"/>
			<line fill="none" stroke="#42C0EF" stroke-width="0.5" stroke-miterlimit="10" x1="221.7" y1="296.6" x2="218.1" y2="287.6"/>
			<line fill="none" stroke="#42C0EF" stroke-width="0.5" stroke-miterlimit="10" x1="217.3" y1="298.3" x2="214" y2="289.2"/>
			<line fill="none" stroke="#42C0EF" stroke-width="0.5" stroke-miterlimit="10" x1="212.8" y1="299.8" x2="209.8" y2="290.7"/>
			<line fill="none" stroke="#42C0EF" stroke-width="0.5" stroke-miterlimit="10" x1="208.2" y1="301.2" x2="205.5" y2="292"/>
			<line fill="none" stroke="#42C0EF" stroke-width="0.5" stroke-miterlimit="10" x1="203.6" y1="302.5" x2="201.3" y2="293.1"/>
			<line fill="none" stroke="#42C0EF" stroke-width="0.5" stroke-miterlimit="10" x1="198.9" y1="303.5" x2="196.9" y2="294.1"/>
			<line fill="none" stroke="#42C0EF" stroke-width="0.5" stroke-miterlimit="10" x1="194.2" y1="304.4" x2="192.6" y2="295"/>
			<line fill="none" stroke="#42C0EF" stroke-width="0.5" stroke-miterlimit="10" x1="189.5" y1="305.2" x2="188.2" y2="295.7"/>
			<line fill="none" stroke="#42C0EF" stroke-width="0.5" stroke-miterlimit="10" x1="184.8" y1="305.8" x2="183.8" y2="296.2"/>
			<line fill="none" stroke="#42C0EF" stroke-width="0.5" stroke-miterlimit="10" x1="180" y1="306.2" x2="179.4" y2="296.6"/>
			<line fill="none" stroke="#42C0EF" stroke-width="0.5" stroke-miterlimit="10" x1="175.3" y1="306.4" x2="174.9" y2="296.8"/>
			<line fill="none" stroke="#42C0EF" stroke-width="0.5" stroke-miterlimit="10" x1="170.5" y1="306.5" x2="170.5" y2="296.9"/>
			<line fill="none" stroke="#42C0EF" stroke-width="0.5" stroke-miterlimit="10" x1="33.6" y1="169.7" x2="43.3" y2="169.7"/>
			<line fill="none" stroke="#42C0EF" stroke-width="0.5" stroke-miterlimit="10" x1="33.7" y1="164.9" x2="43.3" y2="165.2"/>
			<line fill="none" stroke="#42C0EF" stroke-width="0.5" stroke-miterlimit="10" x1="34" y1="160.1" x2="43.6" y2="160.8"/>
			<line fill="none" stroke="#42C0EF" stroke-width="0.5" stroke-miterlimit="10" x1="34.4" y1="155.4" x2="44" y2="156.4"/>
			<line fill="none" stroke="#42C0EF" stroke-width="0.5" stroke-miterlimit="10" x1="35" y1="150.6" x2="44.5" y2="152"/>
			<line fill="none" stroke="#42C0EF" stroke-width="0.5" stroke-miterlimit="10" x1="35.7" y1="145.9" x2="45.2" y2="147.6"/>
			<line fill="none" stroke="#42C0EF" stroke-width="0.5" stroke-miterlimit="10" x1="36.6" y1="141.2" x2="46" y2="143.2"/>
			<line fill="none" stroke="#42C0EF" stroke-width="0.5" stroke-miterlimit="10" x1="37.7" y1="136.6" x2="47" y2="138.9"/>
			<line fill="none" stroke="#42C0EF" stroke-width="0.5" stroke-miterlimit="10" x1="38.9" y1="132" x2="48.2" y2="134.6"/>
			<line fill="none" stroke="#42C0EF" stroke-width="0.5" stroke-miterlimit="10" x1="40.3" y1="127.4" x2="49.5" y2="130.4"/>
			<line fill="none" stroke="#42C0EF" stroke-width="0.5" stroke-miterlimit="10" x1="41.9" y1="122.9" x2="50.9" y2="126.2"/>
			<line fill="none" stroke="#42C0EF" stroke-width="0.5" stroke-miterlimit="10" x1="43.6" y1="118.4" x2="52.5" y2="122"/>
			<line fill="none" stroke="#42C0EF" stroke-width="0.5" stroke-miterlimit="10" x1="45.5" y1="114" x2="54.3" y2="117.9"/>
			<line fill="none" stroke="#42C0EF" stroke-width="0.5" stroke-miterlimit="10" x1="47.5" y1="109.7" x2="56.1" y2="113.9"/>
			<line fill="none" stroke="#42C0EF" stroke-width="0.5" stroke-miterlimit="10" x1="49.6" y1="105.4" x2="58.1" y2="110"/>
			<line fill="none" stroke="#42C0EF" stroke-width="0.5" stroke-miterlimit="10" x1="52" y1="101.3" x2="60.3" y2="106.1"/>
			<line fill="none" stroke="#42C0EF" stroke-width="0.5" stroke-miterlimit="10" x1="54.4" y1="97.2" x2="62.6" y2="102.3"/>
			<line fill="none" stroke="#42C0EF" stroke-width="0.5" stroke-miterlimit="10" x1="57" y1="93.2" x2="65" y2="98.5"/>
			<line fill="none" stroke="#42C0EF" stroke-width="0.5" stroke-miterlimit="10" x1="59.8" y1="89.2" x2="67.6" y2="94.9"/>
			<line fill="none" stroke="#42C0EF" stroke-width="0.5" stroke-miterlimit="10" x1="62.6" y1="85.4" x2="70.2" y2="91.4"/>
			<line fill="none" stroke="#42C0EF" stroke-width="0.5" stroke-miterlimit="10" x1="65.6" y1="81.7" x2="73" y2="87.9"/>
			<line fill="none" stroke="#42C0EF" stroke-width="0.5" stroke-miterlimit="10" x1="68.8" y1="78.1" x2="75.9" y2="84.5"/>
			<line fill="none" stroke="#42C0EF" stroke-width="0.5" stroke-miterlimit="10" x1="72" y1="74.6" x2="79" y2="81.3"/>
			<line fill="none" stroke="#42C0EF" stroke-width="0.5" stroke-miterlimit="10" x1="75.4" y1="71.2" x2="82.1" y2="78.2"/>
			<line fill="none" stroke="#42C0EF" stroke-width="0.5" stroke-miterlimit="10" x1="78.9" y1="68" x2="85.3" y2="75.1"/>
			<line fill="none" stroke="#42C0EF" stroke-width="0.5" stroke-miterlimit="10" x1="82.5" y1="64.8" x2="88.7" y2="72.2"/>
			<line fill="none" stroke="#42C0EF" stroke-width="0.5" stroke-miterlimit="10" x1="86.2" y1="61.8" x2="92.2" y2="69.4"/>
			<line fill="none" stroke="#42C0EF" stroke-width="0.5" stroke-miterlimit="10" x1="90" y1="59" x2="95.7" y2="66.8"/>
			<line fill="none" stroke="#42C0EF" stroke-width="0.5" stroke-miterlimit="10" x1="94" y1="56.2" x2="99.3" y2="64.2"/>
			<line fill="none" stroke="#42C0EF" stroke-width="0.5" stroke-miterlimit="10" x1="98" y1="53.6" x2="103.1" y2="61.8"/>
			<line fill="none" stroke="#42C0EF" stroke-width="0.5" stroke-miterlimit="10" x1="102.1" y1="51.2" x2="106.9" y2="59.5"/>
			<line fill="none" stroke="#42C0EF" stroke-width="0.5" stroke-miterlimit="10" x1="106.2" y1="48.8" x2="110.8" y2="57.3"/>
			<line fill="none" stroke="#42C0EF" stroke-width="0.5" stroke-miterlimit="10" x1="110.5" y1="46.7" x2="114.7" y2="55.3"/>
			<line fill="none" stroke="#42C0EF" stroke-width="0.5" stroke-miterlimit="10" x1="114.8" y1="44.7" x2="118.7" y2="53.5"/>
			<line fill="none" stroke="#42C0EF" stroke-width="0.5" stroke-miterlimit="10" x1="119.2" y1="42.8" x2="122.8" y2="51.7"/>
			<line fill="none" stroke="#42C0EF" stroke-width="0.5" stroke-miterlimit="10" x1="123.7" y1="41.1" x2="127" y2="50.1"/>
			<line fill="none" stroke="#42C0EF" stroke-width="0.5" stroke-miterlimit="10" x1="128.2" y1="39.5" x2="131.2" y2="48.7"/>
			<line fill="none" stroke="#42C0EF" stroke-width="0.5" stroke-miterlimit="10" x1="132.8" y1="38.1" x2="135.4" y2="47.4"/>
			<line fill="none" stroke="#42C0EF" stroke-width="0.5" stroke-miterlimit="10" x1="137.4" y1="36.9" x2="139.7" y2="46.2"/>
			<line fill="none" stroke="#42C0EF" stroke-width="0.5" stroke-miterlimit="10" x1="142" y1="35.8" x2="144" y2="45.2"/>
			<line fill="none" stroke="#42C0EF" stroke-width="0.5" stroke-miterlimit="10" x1="146.7" y1="34.9" x2="148.4" y2="44.4"/>
			<line fill="none" stroke="#42C0EF" stroke-width="0.5" stroke-miterlimit="10" x1="151.4" y1="34.2" x2="152.8" y2="43.7"/>
			<line fill="none" stroke="#42C0EF" stroke-width="0.5" stroke-miterlimit="10" x1="156.2" y1="33.6" x2="157.2" y2="43.2"/>
			<line fill="none" stroke="#42C0EF" stroke-width="0.5" stroke-miterlimit="10" x1="160.9" y1="33.2" x2="161.6" y2="42.8"/>
			<line fill="none" stroke="#42C0EF" stroke-width="0.5" stroke-miterlimit="10" x1="165.7" y1="32.9" x2="166" y2="42.5"/>
			<line fill="none" stroke="#42C0EF" stroke-width="0.5" stroke-miterlimit="10" x1="170.5" y1="32.8" x2="170.5" y2="42.5"/>
			<line fill="none" stroke="#42C0EF" stroke-miterlimit="10" x1="170.5" y1="32.1" x2="170.5" y2="47.5"/>
			<line id="XMLID_35_" fill="none" stroke="#42C0EF" stroke-miterlimit="10" x1="194.4" y1="34.2" x2="191.7" y2="49.3"/>
			<line id="XMLID_34_" fill="none" stroke="#42C0EF" stroke-miterlimit="10" x1="217.5" y1="40.4" x2="212.3" y2="54.8"/>
			<line id="XMLID_33_" fill="none" stroke="#42C0EF" stroke-miterlimit="10" x1="239.3" y1="50.6" x2="231.6" y2="63.8"/>
			<line id="XMLID_32_" fill="none" stroke="#42C0EF" stroke-miterlimit="10" x1="258.9" y1="64.3" x2="249" y2="76.1"/>
			<line id="XMLID_31_" fill="none" stroke="#42C0EF" stroke-miterlimit="10" x1="275.8" y1="81.3" x2="264.1" y2="91.1"/>
			<line id="XMLID_30_" fill="none" stroke="#42C0EF" stroke-miterlimit="10" x1="289.6" y1="100.9" x2="276.3" y2="108.6"/>
			<line id="XMLID_29_" fill="none" stroke="#42C0EF" stroke-miterlimit="10" x1="299.7" y1="122.6" x2="285.3" y2="127.9"/>
			<line id="XMLID_28_" fill="none" stroke="#42C0EF" stroke-miterlimit="10" x1="305.9" y1="145.8" x2="290.8" y2="148.5"/>
			<line id="XMLID_27_" fill="none" stroke="#42C0EF" stroke-miterlimit="10" x1="308" y1="169.7" x2="292.7" y2="169.7"/>
			<line id="XMLID_26_" fill="none" stroke="#42C0EF" stroke-miterlimit="10" x1="305.9" y1="193.6" x2="290.8" y2="190.9"/>
			<line id="XMLID_25_" fill="none" stroke="#42C0EF" stroke-miterlimit="10" x1="299.7" y1="216.7" x2="285.3" y2="211.5"/>
			<line id="XMLID_24_" fill="none" stroke="#42C0EF" stroke-miterlimit="10" x1="289.6" y1="238.5" x2="276.3" y2="230.8"/>
			<line id="XMLID_23_" fill="none" stroke="#42C0EF" stroke-miterlimit="10" x1="275.8" y1="258.1" x2="264.1" y2="248.2"/>
			<line id="XMLID_22_" fill="none" stroke="#42C0EF" stroke-miterlimit="10" x1="258.9" y1="275" x2="249" y2="263.3"/>
			<line id="XMLID_21_" fill="none" stroke="#42C0EF" stroke-miterlimit="10" x1="239.3" y1="288.8" x2="231.6" y2="275.5"/>
			<line id="XMLID_20_" fill="none" stroke="#42C0EF" stroke-miterlimit="10" x1="217.5" y1="298.9" x2="212.3" y2="284.5"/>
			<line id="XMLID_19_" fill="none" stroke="#42C0EF" stroke-miterlimit="10" x1="194.4" y1="305.1" x2="191.7" y2="290"/>
			<line id="XMLID_18_" fill="none" stroke="#42C0EF" stroke-miterlimit="10" x1="170.5" y1="307.2" x2="170.5" y2="291.9"/>
			<line id="XMLID_9_" fill="none" stroke="#42C0EF" stroke-miterlimit="10" x1="32.9" y1="169.7" x2="48.3" y2="169.7"/>
			<line id="XMLID_8_" fill="none" stroke="#42C0EF" stroke-miterlimit="10" x1="35" y1="145.8" x2="50.1" y2="148.5"/>
			<line id="XMLID_7_" fill="none" stroke="#42C0EF" stroke-miterlimit="10" x1="41.2" y1="122.6" x2="55.6" y2="127.9"/>
			<line id="XMLID_6_" fill="none" stroke="#42C0EF" stroke-miterlimit="10" x1="51.4" y1="100.9" x2="64.6" y2="108.6"/>
			<line id="XMLID_5_" fill="none" stroke="#42C0EF" stroke-miterlimit="10" x1="65.1" y1="81.3" x2="76.9" y2="91.1"/>
			<line id="XMLID_4_" fill="none" stroke="#42C0EF" stroke-miterlimit="10" x1="82.1" y1="64.3" x2="91.9" y2="76.1"/>
			<line id="XMLID_3_" fill="none" stroke="#42C0EF" stroke-miterlimit="10" x1="101.7" y1="50.6" x2="109.4" y2="63.8"/>
			<line id="XMLID_2_" fill="none" stroke="#42C0EF" stroke-miterlimit="10" x1="123.4" y1="40.4" x2="128.7" y2="54.8"/>
			<line id="XMLID_1_" fill="none" stroke="#42C0EF" stroke-miterlimit="10" x1="146.6" y1="34.2" x2="149.3" y2="49.3"/>
		</g>
	</g>
</g>
<g id="Center">
	<path fill="#42C0EF" d="M174.4,135.7c0,2.1-3.9,7.6-3.9,7.6s-3.9-5.5-3.9-7.6c0-2.1,1.7-3.9,3.9-3.9
		C172.6,131.8,174.4,133.5,174.4,135.7z"/>
	<path fill="#42C0EF" d="M136.5,165.8c2.1,0,7.6,3.9,7.6,3.9s-5.5,3.9-7.6,3.9c-2.1,0-3.9-1.7-3.9-3.9
		C132.6,167.5,134.3,165.8,136.5,165.8z"/>
	<path fill="#42C0EF" d="M204.5,173.6c-2.1,0-7.6-3.9-7.6-3.9s5.5-3.9,7.6-3.9c2.1,0,3.9,1.7,3.9,3.9
		C208.4,171.8,206.6,173.6,204.5,173.6z"/>
	<path fill="#42C0EF" d="M166.6,203.7c0-2.1,3.9-7.6,3.9-7.6s3.9,5.5,3.9,7.6c0,2.1-1.7,3.9-3.9,3.9
		C168.3,207.6,166.6,205.8,166.6,203.7z"/>
	<circle fill="none" stroke="#42C0EF" stroke-width="0.5" stroke-miterlimit="10" cx="170.5" cy="169.7" r="34"/>
</g>
<g id="Outline">
	<g id="Top_1_">
		<path fill="none" stroke="#42C0EF" stroke-width="2" stroke-miterlimit="10" d="M329.9,163.7c-3.1-85.3-73.3-153.5-159.4-153.5
			S14.2,78.4,11.1,163.7"/>
	</g>
	<g id="Bottom">
		<path fill="none" stroke="#42C0EF" stroke-width="2" stroke-miterlimit="10" d="M23.5,231.7c24.2,57.3,80.9,97.5,147,97.5
			s122.8-40.2,147-97.5"/>
	</g>
	<g id="BoldOutline">
		<path id="BoldLeft" fill="none" stroke="#42C0EF" stroke-width="8" stroke-miterlimit="10" d="M11,173.8
			c0.3,12.5,2.1,24.6,5.1,36.2"/>
		<path id="BoldRight" fill="none" stroke="#42C0EF" stroke-width="8" stroke-miterlimit="10" d="M324.8,209.9
			c3-11.6,4.8-23.7,5.1-36.2"/>
	</g>
	<circle id="DotGuide" fill="none" stroke="#42C0EF" stroke-width="0.5" stroke-miterlimit="10" cx="170.5" cy="169.7" r="147"/>
</g>
<g id="DotBottom_1_">
	<circle id="DotBottom" fill="#42C0EF" cx="170.5" cy="316.7" r="5.5"/>
</g>
<g id="DotTop_1_">
	<circle id="DotTop" fill="#42C0EF" cx="170.5" cy="22" r="5.8"/>
</g>
<g id="InnerRing">
	<path fill="none" stroke="#42C0EF" stroke-width="10" stroke-miterlimit="10" d="M162.6,252c2.6,0.2,5.2,0.4,7.8,0.4
		c40.2,0,73.7-28.8,81.1-66.8"/>
	<path fill="none" stroke="#42C0EF" stroke-width="6" stroke-miterlimit="10" d="M120.7,235.7c11.9,9,26.2,14.8,41.9,16.3"/>
	<path fill="none" stroke="#42C0EF" stroke-width="10" stroke-miterlimit="10" d="M89.4,185.5c4,20.4,15.4,38.1,31.4,50.2"/>
	<path fill="none" stroke="#42C0EF" stroke-width="10" stroke-miterlimit="10" d="M131.7,96.7c-22,11.8-38.1,33.2-42.6,58.7"/>
	<path fill="none" stroke="#42C0EF" stroke-width="7" stroke-miterlimit="10" d="M194.7,90.6c-7.7-2.4-15.8-3.6-24.2-3.6
		c-14,0-27.3,3.5-38.8,9.7"/>
	<path fill="none" stroke="#42C0EF" stroke-width="5" stroke-miterlimit="10" d="M251.9,155.4c-5.4-30.8-27.8-55.7-57.1-64.7"/>
</g>
</svg>
