<?xml version="1.0" encoding="utf-8"?>
<svg version="1.1" xmlns="http://www.w3.org/2000/svg" xmlns:xlink="http://www.w3.org/1999/xlink" x="0px" y="0px"
	 viewBox="0 0 340.2 340.2" enable-background="new 0 0 340.2 340.2" xml:space="preserve">
<g id="InnerRing">
	<path fill="none" stroke="#42C0EF" stroke-width="10" stroke-miterlimit="10" d="M162.6,252c2.6,0.2,5.2,0.4,7.8,0.4
		c40.2,0,73.7-28.8,81.1-66.8"/>
	<path fill="none" stroke="#42C0EF" stroke-width="6" stroke-miterlimit="10" d="M120.7,235.7c11.9,9,26.2,14.8,41.9,16.3"/>
	<path fill="none" stroke="#42C0EF" stroke-width="10" stroke-miterlimit="10" d="M89.4,185.5c4,20.4,15.4,38.1,31.4,50.2"/>
	<path fill="none" stroke="#42C0EF" stroke-width="10" stroke-miterlimit="10" d="M131.7,96.7c-22,11.8-38.1,33.2-42.6,58.7"/>
	<path fill="none" stroke="#42C0EF" stroke-width="7" stroke-miterlimit="10" d="M194.7,90.6c-7.7-2.4-15.8-3.6-24.2-3.6
		c-14,0-27.3,3.5-38.8,9.7"/>
	<path fill="none" stroke="#42C0EF" stroke-width="5" stroke-miterlimit="10" d="M251.9,155.4c-5.4-30.8-27.8-55.7-57.1-64.7"/>
</g>
</svg>
